<?xml version="1.0" standalone="no"?>
<!DOCTYPE svg PUBLIC "-//W3C//DTD SVG 20010904//EN"
 "http://www.w3.org/TR/2001/REC-SVG-20010904/DTD/svg10.dtd">
<svg version="1.0" xmlns="http://www.w3.org/2000/svg"
 width="1081.000000pt" height="1082.000000pt" viewBox="0 0 1081.000000 1082.000000"
 preserveAspectRatio="xMidYMid meet">
<metadata>
Created by potrace 1.16, written by Peter Selinger 2001-2019
</metadata>
<g transform="translate(0.000000,1082.000000) scale(0.100000,-0.100000)"
fill="#000000" stroke="none">
<path d="M7767 10112 c15 -13 52 -41 83 -60 79 -51 338 -246 455 -343 137
-114 436 -409 556 -549 358 -417 634 -861 844 -1360 76 -180 184 -507 234
-705 199 -794 201 -1639 7 -2431 -221 -897 -684 -1713 -1345 -2369 l-121 -120
-101 18 c-210 36 -416 123 -639 272 -69 45 -255 188 -415 315 -159 128 -343
269 -410 313 -197 131 -421 230 -597 267 -32 6 -58 13 -58 15 0 15 48 108 83
163 84 128 231 251 381 318 97 43 89 58 -28 51 -655 -43 -1176 -490 -1443
-1237 l-34 -95 6 115 c17 379 194 810 454 1107 204 232 495 419 821 527 533
177 1109 148 1376 -70 l56 -46 55 37 c210 139 417 419 526 710 152 404 117
794 -87 995 -43 41 -50 44 -109 48 -51 3 -74 -1 -122 -21 -166 -69 -342 -60
-633 34 -223 73 -443 170 -937 416 -367 182 -957 442 -1144 503 -132 43 -301
83 -458 107 -80 12 -177 17 -373 17 -233 1 -282 -2 -407 -23 -134 -22 -143
-22 -159 -6 -27 27 -51 32 -174 39 -488 29 -722 88 -957 242 -198 129 -333
298 -394 494 -33 106 -33 273 0 380 99 320 375 534 729 565 55 5 82 11 79 19
-6 18 -145 46 -267 52 -617 33 -1130 -472 -1130 -1111 0 -194 42 -362 140
-560 202 -407 623 -746 1225 -985 66 -26 137 -53 159 -60 l38 -12 -103 -55
c-141 -73 -330 -201 -472 -320 -365 -302 -522 -390 -732 -409 -45 -4 -75 -11
-74 -18 0 -15 94 -88 177 -139 212 -129 472 -185 740 -158 70 7 143 15 162 18
l35 5 -66 -68 c-425 -443 -779 -1048 -953 -1631 -50 -169 -96 -384 -123 -573
-24 -175 -24 -652 0 -829 9 -69 15 -126 14 -128 -5 -4 -185 134 -307 235 -153
128 -438 408 -564 556 -386 452 -663 908 -876 1441 -52 131 -128 352 -156 455
-10 36 -21 67 -25 70 -4 3 -9 14 -12 25 -2 11 -5 -1 -6 -27 0 -26 11 -103 25
-170 288 -1368 1092 -2553 2254 -3323 904 -599 1941 -898 3030 -872 338 8 544
30 855 88 1372 258 2584 1051 3371 2205 486 712 791 1533 889 2394 82 726 3
1496 -225 2205 -330 1022 -990 1944 -1855 2592 -251 187 -636 426 -756 467
l-40 14 28 -26z m-2245 -3647 c114 -20 281 -75 402 -133 l99 -47 -110 3 c-129
5 -180 -11 -234 -73 -81 -92 -138 -86 -312 33 -116 78 -171 105 -245 117 -36
6 -41 9 -31 22 20 23 99 66 148 79 63 17 182 17 283 -1z m2809 -748 c49 -32
89 -116 89 -186 l-1 -56 -19 49 c-35 90 -100 134 -181 123 -44 -6 -47 1 -22
43 31 53 81 63 134 27z"/>
<path d="M6360 8297 c0 -2 42 -25 93 -51 184 -92 308 -212 391 -379 64 -128
80 -197 81 -342 0 -98 -4 -133 -23 -195 -69 -218 -208 -372 -430 -472 -37 -17
-61 -33 -56 -38 5 -5 55 -30 112 -55 57 -25 207 -97 334 -160 127 -63 239
-115 250 -115 12 0 36 28 72 83 99 152 151 278 181 442 26 135 16 367 -19 494
-113 404 -418 688 -831 776 -64 13 -155 20 -155 12z"/>
</g>
</svg>
